<?xml version="1.0" encoding="UTF-8" standalone="no"?>
<!DOCTYPE svg PUBLIC "-//W3C//DTD SVG 1.1//EN" "http://www.w3.org/Graphics/SVG/1.1/DTD/svg11.dtd">
<svg xmlns="http://www.w3.org/2000/svg" xmlns:xlink="http://www.w3.org/1999/xlink" version="1.1" width="92.985pt" height="71.732pt" viewBox="0 0 92.985 71.732">
<g enable-background="new">
<symbol id="font_0_1">
<path d="M 0 0 L .069000009 0 L .069000009 1.7300001 L .33300004 1.7300001 L .33300004 1.7990002 L 0 1.7990002 L 0 0 Z "/>
</symbol>
<symbol id="font_0_5">
<path d="M 0 0 L .069000009 0 L .069000009 .602 L 0 .602 L 0 0 Z "/>
</symbol>
<symbol id="font_0_3">
<path d="M 0 0 L .33300004 0 L .33300004 .069000009 L .069000009 .069000009 L .069000009 1.799 L 0 1.799 L 0 0 Z "/>
</symbol>
<use xlink:href="#font_0_1" transform="matrix(9.9626,0,0,-9.9626,3.2478076,17.933178)"/>
<use xlink:href="#font_0_5" transform="matrix(9.9626,0,0,-9.9626,3.2478076,23.920525)"/>
<use xlink:href="#font_0_5" transform="matrix(9.9626,0,0,-9.9626,3.2478076,29.898526)"/>
<use xlink:href="#font_0_5" transform="matrix(9.9626,0,0,-9.9626,3.2478076,35.875528)"/>
<use xlink:href="#font_0_5" transform="matrix(9.9626,0,0,-9.9626,3.2478076,41.853528)"/>
<use xlink:href="#font_0_5" transform="matrix(9.9626,0,0,-9.9626,3.2478076,47.831529)"/>
<use xlink:href="#font_0_5" transform="matrix(9.9626,0,0,-9.9626,3.2478076,53.80853)"/>
<use xlink:href="#font_0_3" transform="matrix(9.9626,0,0,-9.9626,3.2478076,71.72222)"/>
<symbol id="font_1_2">
<path d="M .205 .64000007 C .205 .66400006 .205 .666 .18200003 .666 C .120000008 .60200008 .032000007 .60200008 0 .60200008 L 0 .57100006 C .020000004 .57100006 .07900001 .57100006 .13100001 .597 L .13100001 .079 C .13100001 .043 .128 .031000002 .038000004 .031000002 L .0060000049 .031000002 L .0060000049 0 C .04100001 .003 .128 .003 .168 .003 C .20800002 .003 .29500003 .003 .33000005 0 L .33000005 .031000002 L .29800005 .031000002 C .20800002 .031000002 .205 .042000005 .205 .079 L .205 .64000007 Z "/>
</symbol>
<symbol id="font_1_1">
<path d="M .421 .34200005 C .421 .42200003 .416 .50200006 .381 .57600006 C .335 .67200008 .25300003 .688 .211 .688 C .15100001 .688 .07800001 .66200008 .037000006 .56900009 C .0050000029 .5 0 .42200003 0 .34200005 C 0 .26700003 .0040000008 .177 .045000007 .101 C .088 .020000002 .161 0 .21000001 0 C .264 0 .34 .021000002 .384 .116000007 C .416 .185 .421 .263 .421 .34200005 M .21000001 .022000002 C .171 .022000002 .112 .047000003 .094 .143 C .083000008 .20300001 .083000008 .29500003 .083000008 .35400004 C .083000008 .41800005 .083000008 .48400004 .091000009 .53800007 C .11 .65700009 .185 .66600009 .21000001 .66600009 C .243 .66600009 .30900003 .64800009 .328 .549 C .338 .49300004 .338 .41700004 .338 .35400004 C .338 .279 .338 .21100001 .32700003 .147 C .312 .052 .255 .022000002 .21000001 .022000002 Z "/>
</symbol>
<use xlink:href="#font_1_2" transform="matrix(9.9626,0,0,-9.9626,7.5286719,8.369007)"/>
<use xlink:href="#font_1_1" transform="matrix(9.9626,0,0,-9.9626,21.974442,8.588184)"/>
<use xlink:href="#font_1_1" transform="matrix(9.9626,0,0,-9.9626,36.918344,8.588184)"/>
<use xlink:href="#font_1_2" transform="matrix(9.9626,0,0,-9.9626,52.360376,8.369007)"/>
<use xlink:href="#font_1_1" transform="matrix(9.9626,0,0,-9.9626,66.806148,8.588184)"/>
<use xlink:href="#font_1_1" transform="matrix(9.9626,0,0,-9.9626,81.750049,8.588184)"/>
<use xlink:href="#font_1_2" transform="matrix(9.9626,0,0,-9.9626,7.5286719,20.324006)"/>
<use xlink:href="#font_1_1" transform="matrix(9.9626,0,0,-9.9626,21.974442,20.543183)"/>
<use xlink:href="#font_1_1" transform="matrix(9.9626,0,0,-9.9626,36.918344,20.543183)"/>
<use xlink:href="#font_1_1" transform="matrix(9.9626,0,0,-9.9626,51.862245,20.543183)"/>
<use xlink:href="#font_1_2" transform="matrix(9.9626,0,0,-9.9626,67.304279,20.324006)"/>
<use xlink:href="#font_1_1" transform="matrix(9.9626,0,0,-9.9626,81.750049,20.543183)"/>
<use xlink:href="#font_1_1" transform="matrix(9.9626,0,0,-9.9626,7.0305416,32.499185)"/>
<use xlink:href="#font_1_2" transform="matrix(9.9626,0,0,-9.9626,22.47257,32.280008)"/>
<use xlink:href="#font_1_1" transform="matrix(9.9626,0,0,-9.9626,36.918344,32.499185)"/>
<use xlink:href="#font_1_1" transform="matrix(9.9626,0,0,-9.9626,51.862245,32.499185)"/>
<use xlink:href="#font_1_1" transform="matrix(9.9626,0,0,-9.9626,66.806148,32.499185)"/>
<use xlink:href="#font_1_2" transform="matrix(9.9626,0,0,-9.9626,82.24818,32.280008)"/>
<use xlink:href="#font_1_1" transform="matrix(9.9626,0,0,-9.9626,7.0305416,44.454187)"/>
<use xlink:href="#font_1_2" transform="matrix(9.9626,0,0,-9.9626,22.47257,44.23501)"/>
<use xlink:href="#font_1_1" transform="matrix(9.9626,0,0,-9.9626,36.918344,44.454187)"/>
<use xlink:href="#font_1_1" transform="matrix(9.9626,0,0,-9.9626,51.862245,44.454187)"/>
<use xlink:href="#font_1_1" transform="matrix(9.9626,0,0,-9.9626,66.806148,44.454187)"/>
<use xlink:href="#font_1_1" transform="matrix(9.9626,0,0,-9.9626,81.750049,44.454187)"/>
<use xlink:href="#font_1_1" transform="matrix(9.9626,0,0,-9.9626,7.0305416,56.409185)"/>
<use xlink:href="#font_1_1" transform="matrix(9.9626,0,0,-9.9626,21.974442,56.409185)"/>
<use xlink:href="#font_1_2" transform="matrix(9.9626,0,0,-9.9626,37.416475,56.190008)"/>
<use xlink:href="#font_1_1" transform="matrix(9.9626,0,0,-9.9626,51.862245,56.409185)"/>
<use xlink:href="#font_1_1" transform="matrix(9.9626,0,0,-9.9626,66.806148,56.409185)"/>
<use xlink:href="#font_1_1" transform="matrix(9.9626,0,0,-9.9626,81.750049,56.409185)"/>
<use xlink:href="#font_1_1" transform="matrix(9.9626,0,0,-9.9626,7.0305416,68.36418)"/>
<use xlink:href="#font_1_1" transform="matrix(9.9626,0,0,-9.9626,21.974442,68.36418)"/>
<use xlink:href="#font_1_2" transform="matrix(9.9626,0,0,-9.9626,37.416475,68.145008)"/>
<use xlink:href="#font_1_1" transform="matrix(9.9626,0,0,-9.9626,51.862245,68.36418)"/>
<use xlink:href="#font_1_1" transform="matrix(9.9626,0,0,-9.9626,66.806148,68.36418)"/>
<use xlink:href="#font_1_1" transform="matrix(9.9626,0,0,-9.9626,81.750049,68.36418)"/>
<symbol id="font_0_2">
<path d="M .26400004 0 L .333 0 L .333 1.7990002 L 0 1.7990002 L 0 1.7300001 L .26400004 1.7300001 L .26400004 0 Z "/>
</symbol>
<symbol id="font_0_6">
<path d="M 0 0 L .068999979 0 L .068999979 .602 L 0 .602 L 0 0 Z "/>
</symbol>
<symbol id="font_0_4">
<path d="M .26400004 .069000009 L 0 .069000009 L 0 0 L .333 0 L .333 1.799 L .26400004 1.799 L .26400004 .069000009 Z "/>
</symbol>
<use xlink:href="#font_0_2" transform="matrix(9.9626,0,0,-9.9626,86.412738,17.933178)"/>
<use xlink:href="#font_0_6" transform="matrix(9.9626,0,0,-9.9626,89.04286,23.920525)"/>
<use xlink:href="#font_0_6" transform="matrix(9.9626,0,0,-9.9626,89.04286,29.898526)"/>
<use xlink:href="#font_0_6" transform="matrix(9.9626,0,0,-9.9626,89.04286,35.876527)"/>
<use xlink:href="#font_0_6" transform="matrix(9.9626,0,0,-9.9626,89.04286,41.853528)"/>
<use xlink:href="#font_0_6" transform="matrix(9.9626,0,0,-9.9626,89.04286,47.831529)"/>
<use xlink:href="#font_0_6" transform="matrix(9.9626,0,0,-9.9626,89.04286,53.80853)"/>
<use xlink:href="#font_0_4" transform="matrix(9.9626,0,0,-9.9626,86.412738,71.72222)"/>
</g>
</svg>
