<?xml version="1.0" encoding="UTF-8" standalone="no"?>
<!DOCTYPE svg PUBLIC "-//W3C//DTD SVG 1.1//EN" "http://www.w3.org/Graphics/SVG/1.1/DTD/svg11.dtd">
<svg xmlns="http://www.w3.org/2000/svg" xmlns:xlink="http://www.w3.org/1999/xlink" version="1.1" width="178.22pt" height="59.776pt" viewBox="0 0 178.22 59.776">
<g enable-background="new">
<symbol id="font_0_4">
<path d="M .205 .64000007 C .205 .66400006 .205 .666 .18200003 .666 C .120000008 .60200008 .032000007 .60200008 0 .60200008 L 0 .57100006 C .020000004 .57100006 .07900001 .57100006 .13100001 .597 L .13100001 .079 C .13100001 .043 .128 .031000002 .038000004 .031000002 L .0060000049 .031000002 L .0060000049 0 C .04100001 .003 .128 .003 .168 .003 C .20800002 .003 .29500003 .003 .33000005 0 L .33000005 .031000002 L .29800005 .031000002 C .20800002 .031000002 .205 .042000005 .205 .079 L .205 .64000007 Z "/>
</symbol>
<use xlink:href="#font_0_4" transform="matrix(9.9626,0,0,-9.9626,33.818674,8.3689999)"/>
<symbol id="font_1_1">
<path d="M .77900007 .24100001 C .72400006 .19900002 .697 .158 .689 .14500001 C .64400008 .076000008 .63600006 .013000001 .63600006 .012000001 C .63600006 0 .648 0 .656 0 C .67300006 0 .674 .0020000004 .67800006 .020000002 C .70100006 .11800001 .76000007 .20200002 .873 .24800003 C .88500007 .252 .888 .254 .888 .261 C .888 .268 .882 .27100004 .88000008 .272 C .836 .28900004 .71500006 .33900003 .67700007 .507 C .674 .519 .67300006 .522 .656 .522 C .648 .522 .63600006 .522 .63600006 .51 C .63600006 .508 .64500007 .44500003 .68700006 .37800003 C .707 .34800003 .736 .31300003 .77900007 .28100003 L .036000004 .28100003 C .018000003 .28100003 0 .28100003 0 .261 C 0 .24100001 .018000003 .24100001 .036000004 .24100001 L .77900007 .24100001 Z "/>
</symbol>
<use xlink:href="#font_1_1" transform="matrix(9.9626,0,0,-9.9626,41.228944,8.478588)"/>
<symbol id="font_0_5">
<path d="M .07700001 .07700001 L .18300002 .18 C .33900003 .31800003 .39900003 .372 .39900003 .47200004 C .39900003 .586 .30900003 .666 .18700002 .666 C .074 .666 0 .574 0 .485 C 0 .42900003 .05 .42900003 .053000008 .42900003 C .07000001 .42900003 .105000007 .441 .105000007 .48200003 C .105000007 .508 .08700001 .53400006 .052000006 .53400006 C .044000005 .53400006 .042000008 .53400006 .039 .53300008 C .062000004 .59800007 .11600001 .63500007 .17400001 .63500007 C .26500003 .63500007 .308 .554 .308 .47200004 C .308 .39200003 .25800003 .31300003 .20300003 .25100003 L .011000004 .037 C 0 .026 0 .024 0 0 L .37100003 0 L .39900003 .17400001 L .374 .17400001 C .36900003 .14400001 .36200003 .1 .352 .085 C .345 .07700001 .279 .07700001 .257 .07700001 L .07700001 .07700001 Z "/>
</symbol>
<use xlink:href="#font_0_5" transform="matrix(9.9626,0,0,-9.9626,53.90913,8.3689999)"/>
<use xlink:href="#font_1_1" transform="matrix(9.9626,0,0,-9.9626,61.706945,8.478588)"/>
<symbol id="font_0_7">
<path d="M .266 .165 L .266 .078 C .266 .042000005 .26400004 .031000002 .19000001 .031000002 L .16900002 .031000002 L .16900002 0 C .21000001 .003 .26200003 .003 .30400003 .003 C .34600003 .003 .39900003 .003 .44000004 0 L .44000004 .031000002 L .41900004 .031000002 C .34500004 .031000002 .34300003 .042000005 .34300003 .078 L .34300003 .165 L .44300003 .165 L .44300003 .19600001 L .34300003 .19600001 L .34300003 .651 C .34300003 .671 .34300003 .67700007 .32700003 .67700007 C .31800003 .67700007 .31500004 .67700007 .307 .665 L 0 .19600001 L 0 .165 L .266 .165 M .272 .19600001 L .028 .19600001 L .272 .569 L .272 .19600001 Z "/>
</symbol>
<use xlink:href="#font_0_7" transform="matrix(9.9626,0,0,-9.9626,74.16795,8.3689999)"/>
<use xlink:href="#font_1_1" transform="matrix(9.9626,0,0,-9.9626,82.18594,8.478588)"/>
<symbol id="font_0_b">
<path d="M .121 .47900004 C .075 .509 .071 .54300007 .071 .56000009 C .071 .62100008 .136 .66300007 .20700002 .66300007 C .28000004 .66300007 .344 .61100009 .344 .53900006 C .344 .48200003 .305 .43400005 .245 .39900003 L .121 .47900004 M .26700003 .38400004 C .33900003 .42100004 .388 .47300006 .388 .53900006 C .388 .63100007 .29900003 .688 .208 .688 C .108 .688 .027000003 .614 .027000003 .521 C .027000003 .503 .029 .45800004 .071 .41100005 C .082 .39900003 .11900001 .37400005 .144 .35700003 C .086 .32800005 0 .272 0 .17300001 C 0 .067 .102000009 0 .20700002 0 C .32000003 0 .41500003 .083000008 .41500003 .19000001 C .41500003 .22600001 .404 .27100004 .36600004 .31300003 C .34700004 .33400003 .33100004 .34400005 .26700003 .38400004 M .167 .34200005 L .29000003 .26400004 C .31800003 .245 .365 .215 .365 .154 C .365 .080000009 .29000003 .028 .208 .028 C .122 .028 .050000006 .09 .050000006 .17300001 C .050000006 .231 .082 .29500003 .167 .34200005 Z "/>
</symbol>
<use xlink:href="#font_0_b" transform="matrix(9.9626,0,0,-9.9626,94.78642,8.588177)"/>
<use xlink:href="#font_1_1" transform="matrix(9.9626,0,0,-9.9626,102.66494,8.478588)"/>
<symbol id="font_0_9">
<path d="M .089999999 .35000003 L .089999999 .37400005 C .089999999 .62700006 .21400002 .66300007 .26500003 .66300007 C .28900004 .66300007 .33100004 .65700009 .35300002 .623 C .33800004 .623 .298 .623 .298 .57800009 C .298 .54700008 .32200004 .53200009 .344 .53200009 C .36 .53200009 .39000003 .54100009 .39000003 .58000007 C .39000003 .64000007 .34600003 .688 .263 .688 C .13499999 .688 0 .559 0 .33800004 C 0 .071 .116000007 0 .20900002 0 C .32000003 0 .41500003 .094000007 .41500003 .22600001 C .41500003 .35300005 .32600004 .44900004 .215 .44900004 C .14700002 .44900004 .11000001 .39800004 .089999999 .35000003 M .20900002 .028 C .146 .028 .116000007 .088 .11000001 .103 C .092 .15 .092 .23 .092 .24800001 C .092 .32600004 .124000009 .42600004 .21400002 .42600004 C .23000002 .42600004 .27600003 .42600004 .307 .36400003 C .32500003 .32700003 .32500003 .27600003 .32500003 .22700002 C .32500003 .179 .32500003 .12900001 .30800004 .093 C .27800004 .033000005 .23200003 .028 .20900002 .028 Z "/>
</symbol>
<use xlink:href="#font_0_4" transform="matrix(9.9626,0,0,-9.9626,115.73367,8.3689999)"/>
<use xlink:href="#font_0_9" transform="matrix(9.9626,0,0,-9.9626,120.24673,8.588177)"/>
<use xlink:href="#font_1_1" transform="matrix(9.9626,0,0,-9.9626,128.12494,8.478588)"/>
<symbol id="font_0_6">
<path d="M .24800003 .37400005 C .33 .40100003 .388 .47100006 .388 .55 C .388 .632 .3 .688 .204 .688 C .10300001 .688 .027000003 .628 .027000003 .55200007 C .027000003 .519 .049000004 .5 .078 .5 C .109000008 .5 .12900001 .522 .12900001 .55100008 C .12900001 .6010001 .082 .6010001 .067 .6010001 C .098 .65000006 .164 .66300007 .20000002 .66300007 C .24100003 .66300007 .29600004 .64100006 .29600004 .55100008 C .29600004 .53900006 .29400004 .48100005 .268 .43700005 C .238 .38900004 .204 .38600005 .17900002 .38500003 C .171 .38400004 .14700002 .38200004 .14000002 .38200004 C .132 .38100005 .125 .38000003 .125 .37000004 C .125 .35900004 .132 .35900004 .14900002 .35900004 L .19300002 .35900004 C .275 .35900004 .312 .29100005 .312 .193 C .312 .057000005 .24300003 .028 .199 .028 C .15600002 .028 .081 .045 .046000005 .104 C .081 .09900001 .11200001 .12100001 .11200001 .15900001 C .11200001 .19500001 .085 .215 .056 .215 C .031999999 .215 0 .201 0 .157 C 0 .06600001 .093 0 .20200002 0 C .32400004 0 .41500003 .091000009 .41500003 .193 C .41500003 .27500005 .35200004 .35300005 .24800003 .37400005 Z "/>
</symbol>
<use xlink:href="#font_0_4" transform="matrix(9.9626,0,0,-9.9626,141.19367,8.3689999)"/>
<use xlink:href="#font_0_6" transform="matrix(9.9626,0,0,-9.9626,18.12942,20.543175)"/>
<use xlink:href="#font_1_1" transform="matrix(9.9626,0,0,-9.9626,26.007935,20.433587)"/>
<use xlink:href="#font_0_9" transform="matrix(9.9626,0,0,-9.9626,38.60842,20.543175)"/>
<use xlink:href="#font_1_1" transform="matrix(9.9626,0,0,-9.9626,46.486936,20.433587)"/>
<use xlink:href="#font_0_4" transform="matrix(9.9626,0,0,-9.9626,59.555665,20.323998)"/>
<use xlink:href="#font_0_5" transform="matrix(9.9626,0,0,-9.9626,64.14842,20.323998)"/>
<use xlink:href="#font_1_1" transform="matrix(9.9626,0,0,-9.9626,71.94693,20.433587)"/>
<use xlink:href="#font_0_5" transform="matrix(9.9626,0,0,-9.9626,84.62711,20.323998)"/>
<use xlink:href="#font_0_7" transform="matrix(9.9626,0,0,-9.9626,89.38924,20.323998)"/>
<use xlink:href="#font_1_1" transform="matrix(9.9626,0,0,-9.9626,97.40692,20.433587)"/>
<symbol id="font_0_c">
<path d="M .32500003 .34000004 L .32500003 .30800004 C .32500003 .074 .22100002 .028 .16300002 .028 C .146 .028 .092 .030000002 .065000008 .064 C .109000008 .064 .117000009 .093 .117000009 .11000001 C .117000009 .141 .093 .156 .071 .156 C .055 .156 .024999999 .147 .024999999 .108 C .024999999 .041 .079 0 .164 0 C .293 0 .41500003 .136 .41500003 .35100005 C .41500003 .62000009 .3 .688 .21100003 .688 C .15600002 .688 .107 .67 .064 .62500008 C .023000002 .58000007 0 .53800007 0 .46300004 C 0 .33800004 .08800001 .24000001 .20000002 .24000001 C .261 .24000001 .30200003 .28200004 .32500003 .34000004 M .201 .263 C .185 .263 .139 .263 .108 .32600004 C .089999999 .36300005 .089999999 .41300006 .089999999 .46200005 C .089999999 .51600006 .089999999 .563 .11100001 .6 C .13800001 .65000006 .176 .66300007 .21100003 .66300007 C .25700004 .66300007 .29000003 .62900009 .307 .58400008 C .31900005 .55200007 .323 .48900003 .323 .44300006 C .323 .36000005 .28900004 .263 .201 .263 Z "/>
</symbol>
<use xlink:href="#font_0_c" transform="matrix(9.9626,0,0,-9.9626,110.0074,20.543175)"/>
<use xlink:href="#font_1_1" transform="matrix(9.9626,0,0,-9.9626,117.88492,20.433587)"/>
<use xlink:href="#font_0_4" transform="matrix(9.9626,0,0,-9.9626,130.95365,20.323998)"/>
<use xlink:href="#font_0_b" transform="matrix(9.9626,0,0,-9.9626,135.46669,20.543175)"/>
<use xlink:href="#font_1_1" transform="matrix(9.9626,0,0,-9.9626,143.34491,20.433587)"/>
<symbol id="font_0_8">
<path d="M .39900003 .223 C .39900003 .34200005 .317 .44200004 .209 .44200004 C .16100002 .44200004 .118000019 .42600004 .082 .39100004 L .082 .586 C .10200001 .58000007 .135 .573 .16700001 .573 C .29 .573 .36 .66400006 .36 .67700007 C .36 .683 .357 .688 .35 .688 C .349 .688 .347 .688 .342 .68500009 C .322 .67600008 .273 .656 .20600002 .656 C .16600001 .656 .120000008 .66300007 .073 .6840001 C .065 .68700006 .06300001 .68700006 .061000009 .68700006 C .051000004 .68700006 .051000004 .679 .051000004 .66300007 L .051000004 .36700005 C .051000004 .34900005 .051000004 .34100003 .065 .34100003 C .07200001 .34100003 .074 .34400005 .07800001 .35000003 C .08900002 .36600004 .12600002 .42000006 .207 .42000006 C .259 .42000006 .284 .37400005 .292 .35600005 C .308 .31900005 .31 .28000004 .31 .23 C .31 .19500001 .31 .135 .286 .093 C .262 .054000006 .22500001 .028 .17900002 .028 C .106000009 .028 .049000008 .08100001 .032 .14000002 C .035 .13900002 .038000008 .13800001 .049000008 .13800001 C .082 .13800001 .09900001 .163 .09900001 .187 C .09900001 .21100001 .082 .23600002 .049000008 .23600002 C .035 .23600002 0 .22900002 0 .18300002 C 0 .097 .069000009 0 .18100001 0 C .297 0 .39900003 .096 .39900003 .223 Z "/>
</symbol>
<use xlink:href="#font_0_6" transform="matrix(9.9626,0,0,-9.9626,155.94539,20.543175)"/>
<use xlink:href="#font_0_8" transform="matrix(9.9626,0,0,-9.9626,51.41809,32.498178)"/>
<use xlink:href="#font_1_1" transform="matrix(9.9626,0,0,-9.9626,59.216905,32.388589)"/>
<symbol id="font_0_3">
<path d="M .421 .34200005 C .421 .42200003 .416 .50200006 .381 .57600006 C .335 .67200008 .25300003 .688 .211 .688 C .15100001 .688 .07800001 .66200008 .037000006 .56900009 C .0050000029 .5 0 .42200003 0 .34200005 C 0 .26700003 .0040000008 .177 .045000007 .101 C .088 .020000002 .161 0 .21000001 0 C .264 0 .34 .021000002 .384 .116000007 C .416 .185 .421 .263 .421 .34200005 M .21000001 .022000002 C .171 .022000002 .112 .047000003 .094 .143 C .083000008 .20300001 .083000008 .29500003 .083000008 .35400004 C .083000008 .41800005 .083000008 .48400004 .091000009 .53800007 C .11 .65700009 .185 .66600009 .21000001 .66600009 C .243 .66600009 .30900003 .64800009 .328 .549 C .338 .49300004 .338 .41700004 .338 .35400004 C .338 .279 .338 .21100001 .32700003 .147 C .312 .052 .255 .022000002 .21000001 .022000002 Z "/>
</symbol>
<use xlink:href="#font_0_4" transform="matrix(9.9626,0,0,-9.9626,72.28563,32.279)"/>
<use xlink:href="#font_0_3" transform="matrix(9.9626,0,0,-9.9626,76.7688,32.498178)"/>
<use xlink:href="#font_1_1" transform="matrix(9.9626,0,0,-9.9626,84.676898,32.388589)"/>
<use xlink:href="#font_0_5" transform="matrix(9.9626,0,0,-9.9626,97.35708,32.279)"/>
<use xlink:href="#font_0_3" transform="matrix(9.9626,0,0,-9.9626,102.22879,32.498178)"/>
<use xlink:href="#font_1_1" transform="matrix(9.9626,0,0,-9.9626,110.13689,32.388589)"/>
<symbol id="font_0_a">
<path d="M .42000003 .63100007 C .42900003 .64300009 .42900003 .64500007 .42900003 .66600009 L .18600002 .66600009 C .064 .66600009 .062000008 .679 .058000007 .6980001 L .033 .6980001 L 0 .49200005 L .024999999 .49200005 C .028000005 .508 .037 .57100006 .050000006 .58300009 C .057000005 .58900007 .13500002 .58900007 .148 .58900007 L .35500003 .58900007 C .344 .573 .26500003 .46400006 .24300003 .43100003 C .153 .29600004 .12000001 .157 .12000001 .055 C .12000001 .045 .12000001 0 .16600001 0 C .21200001 0 .21200001 .045 .21200001 .055 L .21200001 .106000009 C .21200001 .16100002 .21500004 .216 .22300002 .27 C .22700003 .29300005 .24100003 .37900005 .28500004 .44100005 L .42000003 .63100007 Z "/>
</symbol>
<use xlink:href="#font_0_8" transform="matrix(9.9626,0,0,-9.9626,122.81707,32.498178)"/>
<use xlink:href="#font_0_a" transform="matrix(9.9626,0,0,-9.9626,.5578446,44.453176)"/>
<use xlink:href="#font_1_1" transform="matrix(9.9626,0,0,-9.9626,8.296882,44.343587)"/>
<use xlink:href="#font_0_4" transform="matrix(9.9626,0,0,-9.9626,21.36561,44.233999)"/>
<use xlink:href="#font_0_7" transform="matrix(9.9626,0,0,-9.9626,25.739193,44.233999)"/>
<use xlink:href="#font_1_1" transform="matrix(9.9626,0,0,-9.9626,33.75688,44.343587)"/>
<use xlink:href="#font_0_5" transform="matrix(9.9626,0,0,-9.9626,46.43707,44.233999)"/>
<use xlink:href="#font_0_b" transform="matrix(9.9626,0,0,-9.9626,51.33867,44.453176)"/>
<use xlink:href="#font_1_1" transform="matrix(9.9626,0,0,-9.9626,59.21688,44.343587)"/>
<use xlink:href="#font_0_4" transform="matrix(9.9626,0,0,-9.9626,72.285617,44.233999)"/>
<use xlink:href="#font_0_6" transform="matrix(9.9626,0,0,-9.9626,76.79867,44.453176)"/>
<use xlink:href="#font_1_1" transform="matrix(9.9626,0,0,-9.9626,84.67688,44.343587)"/>
<use xlink:href="#font_0_5" transform="matrix(9.9626,0,0,-9.9626,97.35706,44.233999)"/>
<use xlink:href="#font_0_9" transform="matrix(9.9626,0,0,-9.9626,102.25866,44.453176)"/>
<use xlink:href="#font_1_1" transform="matrix(9.9626,0,0,-9.9626,110.13687,44.343587)"/>
<use xlink:href="#font_0_4" transform="matrix(9.9626,0,0,-9.9626,123.2056,44.233999)"/>
<use xlink:href="#font_0_4" transform="matrix(9.9626,0,0,-9.9626,128.18689,44.233999)"/>
<use xlink:href="#font_1_1" transform="matrix(9.9626,0,0,-9.9626,135.59687,44.343587)"/>
<use xlink:href="#font_0_5" transform="matrix(9.9626,0,0,-9.9626,148.27704,44.233999)"/>
<use xlink:href="#font_0_5" transform="matrix(9.9626,0,0,-9.9626,153.25833,44.233999)"/>
<use xlink:href="#font_1_1" transform="matrix(9.9626,0,0,-9.9626,161.05686,44.343587)"/>
<symbol id="font_0_1">
<path d="M .23200003 .00999999 C .23200003 .012999982 .23200003 .014999986 .215 .03199999 C .09 .15799999 .058 .347 .058 .5 C .058 .674 .096 .84800007 .21900001 .97300007 C .23200003 .985 .23200003 .98700007 .23200003 .99 C .23200003 .99700006 .22800002 1 .222 1 C .21200001 1 .12200001 .93200007 .06299999 .805 C .012000002 .69500008 0 .584 0 .5 C 0 .422 .011 .301 .066 .188 C .126 .065 .21200001 0 .222 0 C .22800002 0 .23200003 .0029999912 .23200003 .00999999 Z "/>
</symbol>
<use xlink:href="#font_0_a" transform="matrix(9.9626,0,0,-9.9626,173.79682,44.453176)"/>
<use xlink:href="#font_0_1" transform="matrix(9.9626,0,0,-9.9626,60.762208,58.679647)"/>
<use xlink:href="#font_0_4" transform="matrix(9.9626,0,0,-9.9626,64.53803,56.188997)"/>
<use xlink:href="#font_0_8" transform="matrix(9.9626,0,0,-9.9626,69.13079,56.408174)"/>
<use xlink:href="#font_1_1" transform="matrix(9.9626,0,0,-9.9626,76.92786,56.298585)"/>
<use xlink:href="#font_0_3" transform="matrix(9.9626,0,0,-9.9626,89.49845,56.408174)"/>
<use xlink:href="#font_1_1" transform="matrix(9.9626,0,0,-9.9626,97.40685,56.298585)"/>
<symbol id="font_0_2">
<path d="M .232 .5 C .232 .578 .22100002 .699 .16600001 .81200006 C .106 .93500009 .020000004 1 .009999998 1 C .0040000008 1 0 .99600008 0 .99 C 0 .98700007 0 .985 .019000002 .967 C .117000009 .86800006 .174 .709 .174 .5 C .174 .329 .137 .153 .012999997 .026999996 C 0 .014999986 0 .012999982 0 .00999999 C 0 .003999993 .0040000008 0 .009999998 0 C .020000004 0 .11000001 .06799999 .169 .195 C .22 .305 .232 .416 .232 .5 Z "/>
</symbol>
<use xlink:href="#font_0_3" transform="matrix(9.9626,0,0,-9.9626,109.977458,56.408174)"/>
<use xlink:href="#font_0_2" transform="matrix(9.9626,0,0,-9.9626,115.138088,58.679647)"/>
</g>
</svg>
